<svg width="429" height="516" viewBox="0 0 429 516" fill="none" xmlns="http://www.w3.org/2000/svg">
<path d="M7.8533 399.089H421.079C421.21 397.899 421.394 396.708 421.499 395.518C430.257 305.544 395.33 238.523 341.811 174.337C300.984 125.368 242.353 78.7516 218.754 17.2573C217.547 14.0834 215.922 2.1529 213.431 9.18082C188.782 78.9783 133.245 120.437 88.17 174.309C34.6518 238.297 -1.50781 306.592 7.53864 396.538C7.6173 397.389 7.74841 398.239 7.8533 399.089Z" fill="#293A80" stroke="#1C9CD8" stroke-width="12.3008"/>
<path d="M89.1853 177.501C89.1689 176.523 89.2182 175.171 89.1853 174.428C93.9971 176.138 91.5447 172.199 94.7088 169.987C95.9131 169.143 99.2195 168.791 99.3946 168.623C100.073 167.953 99.9366 162.679 104.081 159.405C109.018 155.5 114.963 155.182 120.476 158.042C125.643 160.718 126.826 163.556 127.165 169.311C129.596 167.249 134.73 170.149 136.367 172.556C136.619 172.925 136.57 175.026 137.205 175.115C137.336 175.132 138.518 173.579 139.214 173.406C141.737 172.78 146.122 174.568 146.073 177.674L89.1908 177.501H89.1853Z" fill="#F7EEE5"/>
<path d="M372.098 215.978C372.111 215.21 372.072 214.148 372.098 213.564C368.327 214.907 370.249 211.812 367.769 210.074C366.825 209.411 364.234 209.135 364.096 209.003C363.564 208.476 363.671 204.333 360.424 201.76C356.553 198.692 351.894 198.442 347.573 200.689C343.523 202.792 342.596 205.022 342.33 209.543C340.425 207.923 336.401 210.201 335.118 212.093C334.92 212.383 334.959 214.033 334.461 214.104C334.358 214.117 333.432 212.897 332.887 212.76C330.909 212.269 327.472 213.673 327.511 216.114L372.094 215.978H372.098Z" fill="#F7EEE5"/>
<path d="M284.453 118.998C284.476 117.601 284.407 115.67 284.453 114.608C277.69 117.05 281.137 111.424 276.69 108.263C274.998 107.058 270.351 106.555 270.105 106.316C269.151 105.358 269.343 97.824 263.519 93.1471C256.58 87.5684 248.225 87.1135 240.477 91.1997C233.215 95.0226 231.553 99.077 231.076 107.297C227.66 104.352 220.444 108.495 218.143 111.934C217.79 112.461 217.859 115.462 216.966 115.59C216.782 115.614 215.12 113.395 214.143 113.148C210.596 112.254 204.434 114.808 204.503 119.245L284.445 118.998H284.453Z" fill="#F7EEE5"/>
<path d="M336.918 515.241C336.918 515.241 351.61 517.689 351.61 505.896C351.61 505.896 379.946 505.896 379.946 489.212C379.946 489.212 396.035 491.66 396.035 478.976C396.035 467.086 402.502 459.105 417.153 457.791C402.502 456.478 396.035 448.499 396.035 436.605C396.035 423.924 379.946 426.37 379.946 426.37C379.946 409.686 351.61 409.686 351.61 409.686C351.61 397.894 336.918 400.342 336.918 400.342H88.3859C88.3859 400.342 73.6915 397.894 73.6915 409.686C73.6915 409.686 45.3577 409.686 45.3577 426.37C45.3577 426.37 29.2663 423.924 29.2663 436.605C29.2663 448.498 22.8066 456.477 8.15057 457.791C22.804 459.103 29.2663 467.084 29.2663 478.976C29.2663 491.66 45.3577 489.212 45.3577 489.212C45.3577 505.896 73.6915 505.896 73.6915 505.896C73.6915 517.689 88.3859 515.241 88.3859 515.241H336.918Z" fill="#F7EEE5"/>
<path d="M2.00006 457.022L6.47125 456.623C23.607 455.09 27.2029 444.401 27.2029 435.705C27.2029 431.398 29.0177 428.305 32.5982 426.509C36.5881 424.51 41.5355 424.739 43.4274 424.92C43.9242 409.787 67.768 408.358 71.9792 408.226C72.0847 404.388 73.7708 401.645 76.9909 400.066C81.2794 397.966 86.7287 398.693 87.4984 398.811H337.805C338.575 398.695 344.024 397.966 348.31 400.066C351.53 401.645 353.214 404.388 353.322 408.226C357.536 408.36 381.379 409.787 381.876 424.92C383.768 424.739 388.713 424.51 392.703 426.509C396.283 428.304 398.098 431.396 398.098 435.705C398.098 444.401 401.694 455.09 418.832 456.623L423.303 457.022L418.832 457.421C401.694 458.954 398.098 469.643 398.098 478.339C398.098 482.648 396.283 485.742 392.7 487.535C388.713 489.533 383.765 489.304 381.876 489.122C381.379 504.256 357.533 505.684 353.322 505.817C353.216 509.656 351.53 512.401 348.31 513.98C344.024 516.08 338.575 515.353 337.808 515.235H87.4958C86.7287 515.351 81.2768 516.08 76.9909 513.98C73.7682 512.401 72.0847 509.655 71.9792 505.817C67.768 505.683 43.9242 504.256 43.4274 489.122C41.5355 489.304 36.5881 489.534 32.6008 487.535C29.0203 485.74 27.2029 482.646 27.2029 478.339C27.2029 469.641 23.607 458.954 6.47125 457.421L2.00006 457.022ZM415.509 457.022C403.269 454.969 396.826 447.649 396.826 435.704C396.826 431.66 395.176 428.781 391.923 427.147C387.48 424.915 381.457 425.788 381.395 425.798L380.612 425.914V425.404C380.612 409.218 353.829 409.019 352.689 409.019H352.053V408.615C352.053 404.839 350.534 402.18 347.54 400.709C343.52 398.732 338.096 399.595 338.042 399.604L337.882 399.617H87.3362L87.2564 399.604C87.2023 399.594 81.7787 398.732 77.7554 400.709C74.7618 402.18 73.243 404.841 73.243 408.615V409.019H72.6073C71.4669 409.019 44.6887 409.218 44.6887 425.404V425.914L43.9062 425.798C43.8444 425.788 37.8185 424.917 33.3756 427.147C30.1219 428.781 28.472 431.66 28.472 435.704C28.472 447.649 22.029 454.969 9.79181 457.022C22.0316 459.075 28.472 466.395 28.472 478.341C28.472 482.385 30.1219 485.265 33.3756 486.898C37.8185 489.129 43.8444 488.256 43.9062 488.246L44.6887 488.13V488.64C44.6887 504.826 71.4669 505.025 72.6073 505.025H73.243V505.429C73.243 509.205 74.7618 511.866 77.758 513.339C81.7787 515.315 87.2023 514.452 87.2564 514.444L87.416 514.431H337.965L338.045 514.444C338.099 514.454 343.52 515.315 347.54 513.339C350.537 511.868 352.055 509.207 352.055 505.429V505.025H352.691C353.831 505.025 380.612 504.826 380.612 488.64V488.129L381.395 488.246C381.457 488.256 387.48 489.129 391.92 486.899C395.174 485.265 396.824 482.386 396.824 478.341C396.824 466.395 403.267 459.075 415.507 457.022H415.509Z" fill="#293A80"/>
<g filter="url(#filter0_d_59_19857)">
<path d="M290.427 248.11H137.825V225.138H290.427V248.11Z" fill="#ACDEEC"/>
<path d="M272.377 198.884H152.593V226.779H272.377V198.884Z" fill="#1C9CD8"/>
<path d="M123.057 261.237V400.712H184.942V308.059C184.942 293.549 198.185 281.9 213.305 281.9C228.426 281.9 241.669 293.549 241.669 308.059V400.712H303.553V261.237H123.057Z" fill="#1C9CD8"/>
<path d="M218.656 220.215H207.956C207.286 220.215 206.743 219.48 206.743 218.574C206.743 217.669 207.286 216.934 207.956 216.934H218.656C219.326 216.934 219.87 217.669 219.87 218.574C219.87 219.48 219.331 220.215 218.656 220.215Z" fill="#F7EFE4"/>
<path d="M175.566 215.293C177.378 215.293 178.847 213.823 178.847 212.011C178.847 210.199 177.378 208.729 175.566 208.729C173.753 208.729 172.284 210.199 172.284 212.011C172.284 213.823 173.753 215.293 175.566 215.293Z" fill="#F7EFE4"/>
<path d="M249.405 215.293C251.218 215.293 252.687 213.823 252.687 212.011C252.687 210.199 251.218 208.729 249.405 208.729C247.593 208.729 246.123 210.199 246.123 212.011C246.123 213.823 247.593 215.293 249.405 215.293Z" fill="#F7EFE4"/>
<path d="M226.191 190.446C224.429 190.446 222.631 189.654 221.91 188.166C220.596 185.466 216.948 184.116 213.306 184.116C209.663 184.116 206.015 185.466 204.702 188.166C203.98 189.654 202.182 190.446 200.42 190.446H181.398C176.364 190.446 172.284 194.224 172.284 198.884H254.328C254.328 194.224 250.247 190.446 245.213 190.446H226.191Z" fill="#ACDEEC"/>
<path d="M181.308 364.613H127.16C125.801 364.613 124.698 363.51 124.698 362.151C124.698 360.793 125.801 359.69 127.16 359.69H181.308C182.667 359.69 183.77 360.793 183.77 362.151C183.77 363.51 182.667 364.613 181.308 364.613Z" fill="#F7EFE4"/>
<path d="M299.52 364.613H246.875C245.554 364.613 244.482 363.51 244.482 362.151C244.482 360.793 245.554 359.69 246.875 359.69H299.52C300.841 359.69 301.913 360.793 301.913 362.151C301.913 363.51 300.841 364.613 299.52 364.613Z" fill="#F7EFE4"/>
<path d="M155.875 287.491C160.406 287.491 164.08 283.818 164.08 279.287C164.08 274.756 160.406 271.083 155.875 271.083C151.344 271.083 147.671 274.756 147.671 279.287C147.671 283.818 151.344 287.491 155.875 287.491Z" fill="#F7EFE4"/>
<path d="M270.002 287.029C274.294 287.029 277.773 283.551 277.773 279.259C277.773 274.968 274.294 271.489 270.002 271.489C265.711 271.489 262.232 274.968 262.232 279.259C262.232 283.551 265.711 287.029 270.002 287.029Z" fill="#F7EFE4"/>
<path d="M214.31 288.247H211.751C210.322 288.247 209.161 287.086 209.161 285.657V277.917C209.161 276.488 210.322 275.327 211.751 275.327H214.31C215.74 275.327 216.901 276.488 216.901 277.917V285.657C216.901 287.086 215.74 288.247 214.31 288.247Z" fill="#293A80"/>
<path d="M314.712 243.291L313.018 245.71L301.532 262.119L301.073 262.775H125.395L124.936 262.112L113.589 245.704L111.921 243.291H314.712Z" fill="#293A80" stroke="#1C9CD8" stroke-width="3.07521"/>
<path d="M328.722 402.85C328.722 402.85 335.974 413.242 335.187 422.255C335.187 422.255 308.521 423.237 307.743 402.85C307.743 402.85 306.566 407.555 294.609 405.203C282.651 402.85 276.769 393.829 276.769 393.829C276.769 393.829 284.614 391.476 291.274 392.06C291.274 392.06 281.864 381.667 285.587 365.199C285.587 365.199 293.034 367.95 296.563 372.257C296.563 372.257 297.147 368.533 297.934 367.163L299.5 368.339C299.5 368.339 302.445 362.846 303.029 362.263C303.621 361.679 311.263 370.691 311.263 370.691C311.263 370.691 312.828 363.112 313.226 363.271C313.615 363.439 317.339 370.099 317.339 370.099C317.339 370.099 324.591 358.902 326.36 359.114C328.129 359.317 330.871 367.552 331.658 369.904C331.658 369.904 333.418 368.533 334.205 368.923C334.993 369.312 335.249 371.664 335.249 371.664C335.249 371.664 346.367 367.357 348.719 368.728C351.072 370.099 345.579 385.258 343.421 388.655C343.421 388.655 358.121 389.106 358.713 390.68C359.297 392.245 346.561 408.13 328.722 402.841V402.85Z" fill="#E1017B"/>
<path d="M316.074 401.983C316.817 401.983 317.56 401.912 318.285 401.78C322.185 401.037 325.13 398.339 326.36 394.395C329.208 385.258 318.939 370.32 318.506 369.692C318.223 369.276 317.657 369.179 317.241 369.462C316.825 369.745 316.728 370.32 317.011 370.727C317.117 370.877 327.209 385.559 324.626 393.855C323.591 397.19 321.221 399.365 317.949 399.993C313.916 400.763 309.467 398.967 306.592 395.421C301.268 388.832 311.563 371.346 311.669 371.169C311.926 370.736 311.784 370.179 311.351 369.922C310.917 369.666 310.36 369.807 310.104 370.24C309.653 371.001 299.066 389.008 305.177 396.57C307.946 400.002 312.049 401.992 316.074 401.992V401.983Z" fill="#F7AAD6"/>
<path d="M323.07 380.677C323.371 380.677 323.672 380.527 323.84 380.253C325.458 377.67 332.056 370.913 332.127 370.842C332.481 370.479 332.472 369.904 332.109 369.551C331.747 369.197 331.172 369.206 330.827 369.568C330.553 369.851 324.026 376.538 322.301 379.28C322.036 379.704 322.159 380.27 322.584 380.536C322.734 380.633 322.902 380.677 323.07 380.677Z" fill="#F7AAD6"/>
<path d="M322.282 401.665C325.165 401.665 329.756 400.497 333.426 394.191C339.042 384.568 336.194 373.017 336.071 372.531C335.947 372.044 335.452 371.753 334.965 371.876C334.479 372 334.187 372.495 334.311 372.982C334.337 373.097 337.088 384.312 331.861 393.28C326.819 401.93 320.177 399.586 320.115 399.56C319.646 399.383 319.125 399.621 318.948 400.099C318.771 400.568 319.01 401.099 319.487 401.267C319.514 401.275 320.619 401.665 322.291 401.665H322.282Z" fill="#F7AAD6"/>
<path d="M327.872 400.365C336.805 400.365 343.783 390.087 344.084 389.636C344.367 389.221 344.252 388.654 343.836 388.371C343.421 388.088 342.855 388.203 342.572 388.619C342.501 388.725 335.523 399.003 327.315 398.525C326.811 398.498 326.386 398.879 326.351 399.383C326.324 399.887 326.705 400.312 327.209 400.347C327.43 400.356 327.651 400.365 327.863 400.365H327.872Z" fill="#F7AAD6"/>
<path d="M328.624 403.761C328.854 403.761 329.075 403.672 329.252 403.504C329.615 403.159 329.624 402.575 329.279 402.222L326.599 399.445C326.254 399.082 325.67 399.073 325.316 399.418C324.954 399.763 324.945 400.338 325.29 400.7L327.97 403.478C328.147 403.663 328.385 403.761 328.624 403.761Z" fill="#F7AAD6"/>
<path d="M308.042 403.761C308.361 403.761 308.661 403.601 308.829 403.301L310.784 399.896C311.032 399.462 310.881 398.905 310.448 398.657C310.015 398.41 309.457 398.56 309.21 398.993L307.255 402.399C307.007 402.832 307.158 403.389 307.591 403.637C307.733 403.716 307.892 403.761 308.042 403.761Z" fill="#F7AAD6"/>
<path d="M306.69 398.87C307.424 398.87 307.831 398.773 307.963 398.737C308.45 398.596 308.724 398.091 308.582 397.614C308.441 397.136 307.954 396.862 307.468 396.986C307.362 397.012 303.063 397.897 292.441 391.387C292.017 391.122 291.451 391.264 291.194 391.688C290.929 392.113 291.07 392.679 291.495 392.935C299.906 398.083 304.611 398.861 306.69 398.861V398.87Z" fill="#F7AAD6"/>
<path d="M305.045 395.553C305.39 395.553 305.717 395.358 305.876 395.022C306.088 394.562 305.876 394.023 305.425 393.819C293.644 388.442 297.315 373.132 297.359 372.982C297.483 372.495 297.182 372 296.696 371.876C296.209 371.752 295.714 372.053 295.59 372.54C295.546 372.708 291.53 389.468 304.665 395.473C304.788 395.526 304.912 395.553 305.045 395.553Z" fill="#F7AAD6"/>
<path d="M307.707 377.891C307.928 377.891 308.15 377.811 308.326 377.643C308.698 377.298 308.716 376.723 308.371 376.361C308.318 376.308 303.135 370.736 300.481 368.011C300.128 367.649 299.553 367.64 299.199 367.994C298.836 368.348 298.836 368.922 299.181 369.276C301.817 371.983 306.982 377.537 307.035 377.59C307.212 377.785 307.46 377.882 307.698 377.882L307.707 377.891Z" fill="#F7AAD6"/>
<path d="M100.741 402.85C100.741 402.85 93.4887 413.242 94.2758 422.255C94.2758 422.255 120.942 423.237 121.72 402.85C121.72 402.85 122.897 407.555 134.854 405.203C146.812 402.85 152.694 393.829 152.694 393.829C152.694 393.829 144.849 391.476 138.189 392.06C138.189 392.06 147.599 381.667 143.876 365.199C143.876 365.199 136.429 367.95 132.9 372.257C132.9 372.257 132.316 368.533 131.529 367.163L129.963 368.339C129.963 368.339 127.018 362.846 126.434 362.263C125.842 361.679 118.2 370.691 118.2 370.691C118.2 370.691 116.635 363.112 116.237 363.271C115.848 363.439 112.124 370.099 112.124 370.099C112.124 370.099 104.871 358.902 103.103 359.114C101.334 359.317 98.5919 367.552 97.8048 369.904C97.8048 369.904 96.0447 368.533 95.2575 368.923C94.4704 369.312 94.2139 371.664 94.2139 371.664C94.2139 371.664 83.0964 367.357 80.7438 368.728C78.3911 370.099 83.8835 385.258 86.0416 388.655C86.0416 388.655 71.3421 389.106 70.7495 390.68C70.1658 392.245 82.9018 408.13 100.741 402.841V402.85Z" fill="#E1017B"/>
<path d="M113.389 401.983C112.646 401.983 111.903 401.912 111.178 401.78C107.277 401.037 104.332 398.339 103.103 394.395C100.255 385.258 110.523 370.32 110.957 369.692C111.24 369.276 111.806 369.179 112.221 369.462C112.637 369.745 112.734 370.32 112.451 370.727C112.345 370.877 102.254 385.559 104.836 393.855C105.871 397.19 108.241 399.365 111.514 399.993C115.547 400.763 119.996 398.967 122.87 395.421C128.194 388.832 117.899 371.346 117.793 371.169C117.537 370.736 117.678 370.179 118.112 369.922C118.545 369.666 119.102 369.807 119.359 370.24C119.81 371.001 130.397 389.008 124.285 396.57C121.517 400.002 117.413 401.992 113.389 401.992V401.983Z" fill="#F7AAD6"/>
<path d="M106.392 380.677C106.091 380.677 105.791 380.527 105.623 380.253C104.004 377.67 97.4061 370.913 97.3353 370.842C96.9816 370.479 96.9904 369.904 97.353 369.551C97.7156 369.197 98.2905 369.206 98.6355 369.568C98.9097 369.851 105.437 376.538 107.162 379.28C107.427 379.704 107.303 380.27 106.879 380.536C106.728 380.633 106.56 380.677 106.392 380.677Z" fill="#F7AAD6"/>
<path d="M107.18 401.665C104.296 401.665 99.7062 400.497 96.0357 394.191C90.4195 384.568 93.2674 373.017 93.3913 372.531C93.5151 372.044 94.0104 371.753 94.4968 371.876C94.9833 372 95.2751 372.495 95.1513 372.982C95.1248 373.097 92.3741 384.312 97.6012 393.28C102.643 401.93 109.285 399.586 109.347 399.56C109.815 399.383 110.337 399.621 110.514 400.099C110.691 400.568 110.452 401.099 109.975 401.267C109.948 401.275 108.843 401.665 107.171 401.665H107.18Z" fill="#F7AAD6"/>
<path d="M101.59 400.365C92.6566 400.365 85.6783 390.087 85.3776 389.636C85.0945 389.221 85.2095 388.654 85.6252 388.371C86.0409 388.088 86.607 388.203 86.89 388.619C86.9607 388.725 93.939 399.003 102.147 398.525C102.651 398.498 103.075 398.879 103.111 399.383C103.137 399.887 102.757 400.312 102.253 400.347C102.032 400.356 101.811 400.365 101.598 400.365H101.59Z" fill="#F7AAD6"/>
<path d="M100.838 403.761C100.608 403.761 100.387 403.672 100.21 403.504C99.8475 403.159 99.8387 402.575 100.184 402.222L102.864 399.445C103.208 399.082 103.792 399.073 104.146 399.418C104.509 399.763 104.517 400.338 104.172 400.7L101.493 403.478C101.316 403.663 101.077 403.761 100.838 403.761Z" fill="#F7AAD6"/>
<path d="M121.419 403.761C121.101 403.761 120.8 403.601 120.632 403.301L118.678 399.896C118.43 399.462 118.58 398.905 119.014 398.657C119.447 398.41 120.004 398.56 120.252 398.993L122.207 402.399C122.454 402.832 122.304 403.389 121.87 403.637C121.729 403.716 121.57 403.761 121.419 403.761Z" fill="#F7AAD6"/>
<path d="M122.772 398.87C122.038 398.87 121.631 398.773 121.498 398.737C121.012 398.596 120.738 398.091 120.879 397.614C121.021 397.136 121.507 396.862 121.994 396.986C122.1 397.012 126.398 397.897 137.02 391.387C137.445 391.122 138.011 391.264 138.267 391.688C138.533 392.113 138.391 392.679 137.967 392.935C129.556 398.083 124.85 398.861 122.772 398.861V398.87Z" fill="#F7AAD6"/>
<path d="M124.417 395.553C124.072 395.553 123.745 395.358 123.585 395.022C123.373 394.562 123.585 394.023 124.037 393.819C135.817 388.442 132.147 373.132 132.103 372.982C131.979 372.495 132.28 372 132.766 371.876C133.252 371.752 133.748 372.053 133.872 372.54C133.916 372.708 137.931 389.468 124.797 395.473C124.673 395.526 124.55 395.553 124.417 395.553Z" fill="#F7AAD6"/>
<path d="M121.755 377.891C121.534 377.891 121.313 377.811 121.136 377.643C120.765 377.298 120.747 376.723 121.092 376.361C121.145 376.308 126.328 370.736 128.981 368.011C129.335 367.649 129.91 367.64 130.263 367.994C130.626 368.348 130.626 368.922 130.281 369.276C127.646 371.983 122.48 377.537 122.427 377.59C122.25 377.785 122.003 377.882 121.764 377.882L121.755 377.891Z" fill="#F7AAD6"/>
</g>
<path d="M192.521 447.198H175.605V443.981L181.901 437.616C183.146 436.348 184.161 435.264 184.945 434.364C185.752 433.442 186.34 432.589 186.709 431.805C187.101 431.02 187.297 430.167 187.297 429.245C187.297 428.115 186.974 427.273 186.329 426.719C185.683 426.143 184.83 425.855 183.769 425.855C182.731 425.855 181.762 426.074 180.863 426.512C179.964 426.927 179.03 427.527 178.061 428.311L175.674 425.439C176.366 424.84 177.104 424.298 177.888 423.814C178.672 423.306 179.56 422.903 180.552 422.603C181.543 422.303 182.696 422.153 184.011 422.153C185.602 422.153 186.963 422.441 188.093 423.018C189.246 423.571 190.134 424.344 190.757 425.336C191.379 426.327 191.691 427.48 191.691 428.795C191.691 429.81 191.541 430.755 191.241 431.632C190.941 432.485 190.503 433.327 189.926 434.157C189.35 434.987 188.646 435.829 187.816 436.682C186.986 437.535 186.052 438.458 185.014 439.45L181.105 443.22V443.428H192.521V447.198ZM212.248 434.814C212.248 436.821 212.098 438.608 211.798 440.176C211.499 441.744 211.003 443.082 210.311 444.189C209.642 445.273 208.766 446.103 207.682 446.68C206.621 447.256 205.318 447.544 203.773 447.544C201.836 447.544 200.244 447.037 198.999 446.022C197.754 445.008 196.831 443.555 196.231 441.664C195.632 439.749 195.332 437.466 195.332 434.814C195.332 432.162 195.609 429.89 196.162 427.999C196.716 426.108 197.604 424.655 198.826 423.641C200.071 422.626 201.72 422.118 203.773 422.118C205.71 422.118 207.301 422.626 208.547 423.641C209.792 424.632 210.714 426.085 211.314 427.999C211.937 429.89 212.248 432.162 212.248 434.814ZM199.725 434.849C199.725 436.855 199.852 438.539 200.106 439.899C200.36 441.237 200.775 442.252 201.351 442.944C201.951 443.612 202.758 443.947 203.773 443.947C204.787 443.947 205.583 443.612 206.16 442.944C206.759 442.275 207.186 441.26 207.44 439.899C207.716 438.539 207.855 436.855 207.855 434.849C207.855 432.819 207.716 431.136 207.44 429.798C207.186 428.437 206.759 427.423 206.16 426.754C205.583 426.062 204.787 425.716 203.773 425.716C202.758 425.716 201.951 426.062 201.351 426.754C200.775 427.423 200.36 428.426 200.106 429.764C199.852 431.101 199.725 432.796 199.725 434.849ZM232.114 447.198H215.198V443.981L221.494 437.616C222.739 436.348 223.754 435.264 224.538 434.364C225.345 433.442 225.933 432.589 226.302 431.805C226.694 431.02 226.89 430.167 226.89 429.245C226.89 428.115 226.567 427.273 225.922 426.719C225.276 426.143 224.423 425.855 223.362 425.855C222.324 425.855 221.355 426.074 220.456 426.512C219.556 426.927 218.622 427.527 217.654 428.311L215.267 425.439C215.959 424.84 216.697 424.298 217.481 423.814C218.265 423.306 219.153 422.903 220.144 422.603C221.136 422.303 222.289 422.153 223.604 422.153C225.195 422.153 226.556 422.441 227.686 423.018C228.839 423.571 229.727 424.344 230.349 425.336C230.972 426.327 231.283 427.48 231.283 428.795C231.283 429.81 231.134 430.755 230.834 431.632C230.534 432.485 230.096 433.327 229.519 434.157C228.943 434.987 228.239 435.829 227.409 436.682C226.579 437.535 225.645 438.458 224.607 439.45L220.698 443.22V443.428H232.114V447.198ZM243.573 431.666C245.141 431.666 246.525 431.954 247.724 432.531C248.924 433.108 249.858 433.949 250.526 435.056C251.218 436.14 251.564 437.478 251.564 439.069C251.564 440.822 251.195 442.332 250.457 443.601C249.719 444.869 248.635 445.849 247.205 446.541C245.776 447.21 244.023 447.544 241.947 447.544C240.656 447.544 239.445 447.429 238.315 447.198C237.185 446.968 236.205 446.633 235.375 446.195V442.321C236.228 442.782 237.254 443.163 238.453 443.462C239.653 443.762 240.783 443.912 241.844 443.912C242.951 443.912 243.896 443.762 244.68 443.462C245.464 443.14 246.064 442.655 246.479 442.01C246.894 441.341 247.102 440.499 247.102 439.484C247.102 438.101 246.664 437.051 245.787 436.336C244.911 435.621 243.55 435.264 241.705 435.264C241.059 435.264 240.356 435.322 239.595 435.437C238.857 435.552 238.246 435.667 237.762 435.783L235.894 434.745L236.828 422.499H249.835V426.304H240.667L240.148 432.012C240.541 431.943 241.002 431.874 241.532 431.805C242.086 431.712 242.766 431.666 243.573 431.666ZM78.2852 471.607C78.2852 474.374 77.7548 476.692 76.6939 478.56C75.6561 480.428 74.1456 481.835 72.1622 482.78C70.202 483.726 67.8266 484.198 65.0361 484.198H58.0829V459.499H65.7625C68.3224 459.499 70.5364 459.96 72.4044 460.883C74.2724 461.805 75.7138 463.166 76.7285 464.965C77.7663 466.741 78.2852 468.954 78.2852 471.607ZM73.6497 471.745C73.6497 469.785 73.3499 468.17 72.7503 466.902C72.1507 465.634 71.2628 464.7 70.0867 464.1C68.9105 463.477 67.4691 463.166 65.7625 463.166H62.5108V480.497H65.1744C68.0341 480.497 70.1558 479.771 71.5396 478.318C72.9464 476.842 73.6497 474.651 73.6497 471.745ZM92.964 465.103C93.2408 465.103 93.5637 465.115 93.9327 465.138C94.3016 465.161 94.613 465.207 94.8667 465.276L94.4861 469.323C94.2786 469.277 94.0018 469.243 93.6559 469.22C93.333 469.174 93.0448 469.15 92.7911 469.15C92.0992 469.15 91.4304 469.266 90.7847 469.496C90.162 469.704 89.597 470.027 89.0896 470.465C88.6053 470.88 88.2133 471.422 87.9135 472.091C87.6367 472.76 87.4983 473.555 87.4983 474.478V484.198H83.1396V465.449H86.4951L87.1178 468.701H87.3254C87.6944 468.032 88.1556 467.432 88.7091 466.902C89.2626 466.348 89.8968 465.91 90.6117 465.587C91.3497 465.265 92.1338 465.103 92.964 465.103ZM114.981 465.449V484.198H111.556L110.968 481.777H110.761C110.369 482.423 109.861 482.953 109.238 483.368C108.616 483.76 107.935 484.049 107.197 484.233C106.459 484.441 105.698 484.544 104.914 484.544C103.531 484.544 102.331 484.302 101.317 483.818C100.302 483.334 99.5293 482.596 98.9989 481.604C98.4685 480.589 98.2033 479.286 98.2033 477.695V465.449H102.562V476.83C102.562 478.214 102.839 479.263 103.392 479.978C103.946 480.67 104.822 481.016 106.021 481.016C107.197 481.016 108.12 480.774 108.789 480.289C109.458 479.782 109.93 479.056 110.207 478.11C110.484 477.165 110.622 476 110.622 474.616V465.449H114.981ZM130.396 465.103C132.587 465.103 134.351 465.922 135.688 467.559C137.026 469.174 137.695 471.584 137.695 474.789C137.695 476.911 137.383 478.698 136.761 480.151C136.138 481.604 135.273 482.699 134.166 483.437C133.059 484.175 131.768 484.544 130.292 484.544C129.392 484.544 128.597 484.429 127.905 484.198C127.213 483.945 126.625 483.633 126.141 483.264C125.656 482.872 125.241 482.457 124.895 482.019H124.619C124.711 482.434 124.78 482.907 124.826 483.437C124.872 483.945 124.895 484.429 124.895 484.89V492.501H120.537V465.449H124.065L124.688 467.94H124.895C125.241 467.409 125.656 466.937 126.141 466.521C126.648 466.083 127.248 465.737 127.94 465.484C128.654 465.23 129.473 465.103 130.396 465.103ZM129.15 468.632C128.136 468.632 127.317 468.839 126.694 469.254C126.072 469.646 125.622 470.257 125.345 471.088C125.068 471.918 124.918 472.956 124.895 474.201V474.755C124.895 476.092 125.022 477.222 125.276 478.145C125.553 479.067 126.002 479.771 126.625 480.255C127.271 480.739 128.136 480.981 129.219 480.981C130.142 480.981 130.891 480.728 131.468 480.22C132.068 479.713 132.506 478.998 132.783 478.076C133.082 477.13 133.232 476.011 133.232 474.72C133.232 472.783 132.898 471.284 132.229 470.223C131.583 469.162 130.557 468.632 129.15 468.632ZM149.663 465.103C152.085 465.103 153.918 465.634 155.164 466.694C156.432 467.732 157.066 469.37 157.066 471.607V484.198H153.987L153.123 481.604H152.984C152.454 482.273 151.9 482.838 151.324 483.299C150.77 483.737 150.124 484.049 149.386 484.233C148.672 484.441 147.795 484.544 146.757 484.544C145.65 484.544 144.647 484.337 143.748 483.922C142.871 483.507 142.18 482.872 141.672 482.019C141.165 481.143 140.911 480.047 140.911 478.733C140.911 476.796 141.615 475.343 143.021 474.374C144.451 473.382 146.607 472.84 149.49 472.748L152.742 472.644V471.71C152.742 470.511 152.454 469.658 151.877 469.15C151.301 468.643 150.493 468.389 149.456 468.389C148.51 468.389 147.599 468.528 146.723 468.805C145.846 469.081 144.993 469.404 144.163 469.773L142.779 466.729C143.702 466.245 144.751 465.853 145.927 465.553C147.126 465.253 148.372 465.103 149.663 465.103ZM150.459 475.412C148.545 475.481 147.219 475.815 146.481 476.415C145.743 476.992 145.374 477.776 145.374 478.767C145.374 479.644 145.639 480.278 146.169 480.67C146.7 481.062 147.38 481.258 148.21 481.258C149.479 481.258 150.551 480.901 151.427 480.186C152.304 479.448 152.742 478.364 152.742 476.934V475.343L150.459 475.412ZM166.887 484.198H162.528V457.908H166.887V484.198ZM192.378 462.889C191.248 462.889 190.244 463.097 189.368 463.512C188.492 463.927 187.742 464.527 187.119 465.311C186.52 466.095 186.059 467.04 185.736 468.147C185.436 469.254 185.286 470.5 185.286 471.883C185.286 473.751 185.54 475.354 186.047 476.692C186.554 478.006 187.327 479.021 188.365 479.736C189.426 480.451 190.752 480.808 192.343 480.808C193.404 480.808 194.419 480.705 195.387 480.497C196.379 480.266 197.417 479.967 198.501 479.598V483.368C197.486 483.783 196.46 484.083 195.422 484.268C194.407 484.452 193.231 484.544 191.893 484.544C189.356 484.544 187.258 484.026 185.597 482.988C183.937 481.927 182.703 480.451 181.896 478.56C181.089 476.646 180.685 474.409 180.685 471.849C180.685 469.981 180.939 468.274 181.446 466.729C181.977 465.184 182.726 463.846 183.695 462.716C184.686 461.586 185.909 460.71 187.362 460.087C188.814 459.464 190.486 459.153 192.378 459.153C193.623 459.153 194.845 459.303 196.044 459.603C197.267 459.88 198.408 460.272 199.469 460.779L197.947 464.411C197.071 464.019 196.16 463.673 195.214 463.373C194.292 463.051 193.346 462.889 192.378 462.889ZM210.877 465.103C213.298 465.103 215.132 465.634 216.377 466.694C217.645 467.732 218.28 469.37 218.28 471.607V484.198H215.201L214.336 481.604H214.198C213.667 482.273 213.114 482.838 212.537 483.299C211.984 483.737 211.338 484.049 210.6 484.233C209.885 484.441 209.009 484.544 207.971 484.544C206.864 484.544 205.861 484.337 204.961 483.922C204.085 483.507 203.393 482.872 202.886 482.019C202.378 481.143 202.125 480.047 202.125 478.733C202.125 476.796 202.828 475.343 204.235 474.374C205.665 473.382 207.821 472.84 210.704 472.748L213.956 472.644V471.71C213.956 470.511 213.667 469.658 213.091 469.15C212.514 468.643 211.707 468.389 210.669 468.389C209.724 468.389 208.813 468.528 207.936 468.805C207.06 469.081 206.207 469.404 205.376 469.773L203.993 466.729C204.915 466.245 205.965 465.853 207.141 465.553C208.34 465.253 209.585 465.103 210.877 465.103ZM211.672 475.412C209.758 475.481 208.432 475.815 207.694 476.415C206.956 476.992 206.587 477.776 206.587 478.767C206.587 479.644 206.852 480.278 207.383 480.67C207.913 481.062 208.594 481.258 209.424 481.258C210.692 481.258 211.765 480.901 212.641 480.186C213.517 479.448 213.956 478.364 213.956 476.934V475.343L211.672 475.412ZM245.224 465.103C247.346 465.103 248.937 465.645 249.998 466.729C251.082 467.813 251.624 469.566 251.624 471.987V484.198H247.265V472.817C247.265 471.434 247.011 470.396 246.504 469.704C245.997 468.989 245.189 468.632 244.082 468.632C242.56 468.632 241.476 469.127 240.831 470.119C240.185 471.111 239.862 472.552 239.862 474.443V484.198H235.503V472.817C235.503 471.895 235.388 471.122 235.157 470.5C234.927 469.877 234.569 469.416 234.085 469.116C233.624 468.793 233.024 468.632 232.286 468.632C231.248 468.632 230.418 468.885 229.795 469.393C229.173 469.877 228.735 470.592 228.481 471.537C228.227 472.483 228.1 473.648 228.1 475.031V484.198H223.742V465.449H227.097L227.72 467.905H227.962C228.354 467.259 228.827 466.729 229.38 466.314C229.957 465.899 230.591 465.599 231.283 465.414C231.998 465.207 232.713 465.103 233.428 465.103C234.834 465.103 236.022 465.345 236.991 465.83C237.959 466.291 238.686 467.017 239.17 468.009H239.516C240.093 466.994 240.9 466.256 241.938 465.795C242.998 465.334 244.094 465.103 245.224 465.103ZM266.944 465.103C269.135 465.103 270.899 465.922 272.237 467.559C273.574 469.174 274.243 471.584 274.243 474.789C274.243 476.911 273.932 478.698 273.309 480.151C272.686 481.604 271.821 482.699 270.714 483.437C269.607 484.175 268.316 484.544 266.84 484.544C265.941 484.544 265.145 484.429 264.453 484.198C263.761 483.945 263.173 483.633 262.689 483.264C262.205 482.872 261.789 482.457 261.444 482.019H261.167C261.259 482.434 261.328 482.907 261.374 483.437C261.42 483.945 261.444 484.429 261.444 484.89V492.501H257.085V465.449H260.613L261.236 467.94H261.444C261.789 467.409 262.205 466.937 262.689 466.521C263.196 466.083 263.796 465.737 264.488 465.484C265.203 465.23 266.021 465.103 266.944 465.103ZM265.698 468.632C264.684 468.632 263.865 468.839 263.242 469.254C262.62 469.646 262.17 470.257 261.893 471.088C261.616 471.918 261.467 472.956 261.444 474.201V474.755C261.444 476.092 261.57 477.222 261.824 478.145C262.101 479.067 262.55 479.771 263.173 480.255C263.819 480.739 264.684 480.981 265.768 480.981C266.69 480.981 267.44 480.728 268.016 480.22C268.616 479.713 269.054 478.998 269.331 478.076C269.631 477.13 269.78 476.011 269.78 474.72C269.78 472.783 269.446 471.284 268.777 470.223C268.132 469.162 267.105 468.632 265.698 468.632ZM308.343 471.607C308.343 474.374 307.812 476.692 306.752 478.56C305.714 480.428 304.203 481.835 302.22 482.78C300.26 483.726 297.884 484.198 295.094 484.198H288.14V459.499H295.82C298.38 459.499 300.594 459.96 302.462 460.883C304.33 461.805 305.771 463.166 306.786 464.965C307.824 466.741 308.343 468.954 308.343 471.607ZM303.707 471.745C303.707 469.785 303.408 468.17 302.808 466.902C302.208 465.634 301.32 464.7 300.144 464.1C298.968 463.477 297.527 463.166 295.82 463.166H292.568V480.497H295.232C298.092 480.497 300.213 479.771 301.597 478.318C303.004 476.842 303.707 474.651 303.707 471.745ZM320.739 465.103C322.422 465.103 323.863 465.449 325.063 466.141C326.285 466.81 327.23 467.778 327.899 469.047C328.568 470.292 328.902 471.814 328.902 473.613V475.827H316.518C316.564 477.534 317.037 478.86 317.936 479.805C318.836 480.728 320.081 481.189 321.673 481.189C322.895 481.189 323.979 481.074 324.924 480.843C325.893 480.589 326.885 480.232 327.899 479.771V483.264C326.977 483.703 326.02 484.026 325.028 484.233C324.036 484.441 322.849 484.544 321.465 484.544C319.643 484.544 318.017 484.198 316.587 483.507C315.181 482.792 314.074 481.719 313.266 480.289C312.482 478.86 312.09 477.084 312.09 474.962C312.09 472.817 312.448 471.019 313.163 469.566C313.901 468.09 314.915 466.983 316.207 466.245C317.498 465.484 319.009 465.103 320.739 465.103ZM320.739 468.32C319.585 468.32 318.64 468.701 317.902 469.462C317.187 470.2 316.76 471.307 316.622 472.783H324.682C324.682 471.906 324.532 471.134 324.232 470.465C323.956 469.796 323.529 469.277 322.952 468.908C322.376 468.516 321.638 468.32 320.739 468.32ZM337.656 484.198H333.298V457.908H337.656V484.198ZM347.588 464.169C347.588 464.907 347.554 465.634 347.485 466.348C347.439 467.04 347.392 467.559 347.346 467.905H347.623C348.015 467.259 348.499 466.741 349.076 466.348C349.652 465.933 350.287 465.622 350.979 465.414C351.693 465.207 352.431 465.103 353.193 465.103C354.599 465.103 355.81 465.345 356.825 465.83C357.84 466.314 358.612 467.063 359.143 468.078C359.696 469.07 359.973 470.373 359.973 471.987V484.198H355.614V472.852C355.614 471.422 355.337 470.361 354.784 469.669C354.23 468.978 353.354 468.632 352.155 468.632C351.002 468.632 350.091 468.885 349.422 469.393C348.753 469.877 348.28 470.603 348.004 471.572C347.727 472.518 347.588 473.682 347.588 475.066V484.198H343.23V457.908H347.588V464.169ZM369.783 465.449V484.198H365.425V465.449H369.783ZM367.604 458.219C368.25 458.219 368.815 458.392 369.299 458.738C369.783 459.061 370.026 459.649 370.026 460.502C370.026 461.332 369.783 461.932 369.299 462.301C368.815 462.647 368.25 462.82 367.604 462.82C366.935 462.82 366.359 462.647 365.874 462.301C365.413 461.932 365.183 461.332 365.183 460.502C365.183 459.649 365.413 459.061 365.874 458.738C366.359 458.392 366.935 458.219 367.604 458.219Z" fill="#293A80"/>
<path d="M75.7991 435.954C75.7991 437.992 77.4511 439.644 79.489 439.644C81.5269 439.644 83.1789 437.992 83.1789 435.954C83.1789 433.916 81.5269 432.264 79.489 432.264C77.4511 432.264 75.7991 433.916 75.7991 435.954ZM79.489 435.954V436.646H155.594V435.954V435.262H79.489V435.954Z" fill="#293A80"/>
<path d="M342.858 435.954C342.858 437.992 344.51 439.644 346.548 439.644C348.586 439.644 350.238 437.992 350.238 435.954C350.238 433.916 348.586 432.264 346.548 432.264C344.51 432.264 342.858 433.916 342.858 435.954ZM270.443 435.954V436.646H346.548V435.954V435.262H270.443V435.954Z" fill="#293A80"/>
<defs>
<filter id="filter0_d_59_19857" x="65.1953" y="184.116" width="299.072" height="249.216" filterUnits="userSpaceOnUse" color-interpolation-filters="sRGB">
<feFlood flood-opacity="0" result="BackgroundImageFix"/>
<feColorMatrix in="SourceAlpha" type="matrix" values="0 0 0 0 0 0 0 0 0 0 0 0 0 0 0 0 0 0 127 0" result="hardAlpha"/>
<feOffset dy="5.5349"/>
<feGaussianBlur stdDeviation="2.76745"/>
<feComposite in2="hardAlpha" operator="out"/>
<feColorMatrix type="matrix" values="0 0 0 0 0 0 0 0 0 0 0 0 0 0 0 0 0 0 0.25 0"/>
<feBlend mode="normal" in2="BackgroundImageFix" result="effect1_dropShadow_59_19857"/>
<feBlend mode="normal" in="SourceGraphic" in2="effect1_dropShadow_59_19857" result="shape"/>
</filter>
</defs>
</svg>
